<?xml version="1.0" encoding="UTF-8"?>
<svg xmlns="http://www.w3.org/2000/svg" version="1.1" xmlns:xlink="http://www.w3.org/1999/xlink" viewBox="56 96 494 130">
  <!-- Generator: Adobe Illustrator 29.2.0, SVG Export Plug-In . SVG Version: 2.1.0 Build 108)  -->
  <defs>
    <style>
      .st0 {
        fill: #68286b;
      }

      .st1 {
        fill: none;
      }

      .st2 {
        fill: none;
      }

      .st3 {
        fill: url(#Degradado_sin_nombre_17);
      }

      .st4 {
        fill: url(#Degradado_sin_nombre_12);
      }
    </style>
    <linearGradient id="Degradado_sin_nombre_17" data-name="Degradado sin nombre 17" x1="495.86" y1="147.18" x2="63.84" y2="147.18" gradientUnits="userSpaceOnUse">
      <stop offset=".02" stop-color="#fff"/>
      <stop offset=".1" stop-color="#f4f2f6"/>
      <stop offset=".26" stop-color="#d8d2e0"/>
      <stop offset=".33" stop-color="#c9c0d4"/>
      <stop offset=".36" stop-color="#baa9c4"/>
      <stop offset=".41" stop-color="#a486ac"/>
      <stop offset=".47" stop-color="#916998"/>
      <stop offset=".53" stop-color="#825187"/>
      <stop offset=".6" stop-color="#763e7a"/>
      <stop offset=".68" stop-color="#6e3171"/>
      <stop offset=".78" stop-color="#692a6c"/>
      <stop offset="1" stop-color="#68286b"/>
    </linearGradient>
    <linearGradient id="Degradado_sin_nombre_12" data-name="Degradado sin nombre 12" x1="323.76" y1="240.58" x2="323.76" y2="240.58" gradientUnits="userSpaceOnUse">
      <stop offset="0" stop-color="#fff"/>
      <stop offset=".1" stop-color="#eeecf2"/>
      <stop offset=".33" stop-color="#c9c0d4"/>
      <stop offset=".36" stop-color="#baa9c4"/>
      <stop offset=".41" stop-color="#a486ac"/>
      <stop offset=".47" stop-color="#916998"/>
      <stop offset=".53" stop-color="#825187"/>
      <stop offset=".6" stop-color="#763e7a"/>
      <stop offset=".68" stop-color="#6e3171"/>
      <stop offset=".78" stop-color="#692a6c"/>
      <stop offset="1" stop-color="#68286b"/>
    </linearGradient>
    <mask id="counters" maskUnits="userSpaceOnUse" x="0" y="0" width="612" height="792">
      <rect x="0" y="0" width="612" height="792" fill="#fff"/>
      <path d="M121.54,138.31h-24.64c-.11,12.36-.21,24.72-.32,37.07,8.32.07,16.64.14,24.96.21v-37.28Z" fill="#000"/>
      <rect x="247.82" y="138.2" width="24.64" height="37.39" fill="#000"/>
      <rect x="454.41" y="138.52" width="23.38" height="37.28" fill="#000"/>
      <path d="M121.78,138.26h-24.64c-.11,12.36-.21,24.72-.32,37.07,8.32.07,16.64.14,24.96.21v-37.28Z" fill="#000"/>
    </mask>
  </defs>
  <g mask="url(#counters)">
  <g id="Capa_1">
    <path d="M98.48,232.36"/>
  </g>
  <g id="Capa_3">
    <polyline class="st0" points="537.82 190.5 525.02 190.5 525.02 187.81 537.82 187.81 537.82 191.29"/>
    <polyline class="st0" points="537.82 183.23 525.02 183.23 525.02 180.54 537.82 180.54 537.82 184.02"/>
    <polyline class="st0" points="537.82 175.96 525.02 175.96 525.02 173.28 537.82 173.28 537.82 176.75"/>
    <polyline class="st0" points="537.82 168.69 525.02 168.69 525.02 166.01 537.82 166.01 537.82 169.48"/>
    <polyline class="st0" points="537.82 161.43 525.02 161.43 525.02 158.74 537.82 158.74 537.82 162.22"/>
    <polyline class="st0" points="537.82 154.16 525.02 154.16 525.02 151.47 537.82 151.47 537.82 154.95"/>
    <polyline class="st0" points="537.82 146.89 525.02 146.89 525.02 144.21 537.82 144.21 537.82 147.68"/>
    <polyline class="st0" points="537.82 139.63 525.02 139.63 525.02 136.94 537.82 136.94 537.82 140.42"/>
    <polyline class="st0" points="537.82 132.36 525.02 132.36 525.02 129.67 537.82 129.67 537.82 133.15"/>
  </g>
  <g id="Capa_2">
    <path class="st0" fill-rule="evenodd" d="M537.03125,118.929688C529.5,119.035156,521.96875,119.144531,514.4375,119.25C514.386719,143.859375,514.332031,168.464844,514.28125,193.074219C514.792969,199.628906,520.195312,204.75,526.601562,204.871094C533.183594,204.996094,538.867188,199.808594,539.398438,193.074219C539.425781,168.359375,539.453125,143.644531,539.480469,118.929688ZM537.03125,121.351562L517.203125,121.351562L517.203125,193.390625C517.882812,198.242188,521.808594,201.917969,526.394531,202.238281C531.523438,202.597656,536.34375,198.664062,537.03125,193.179688Z"/>
    <path d="M141.45,177.86l-2.69,2.48h-59.56l-2.05-2.48v-43.76c-.02-.13-.2-1.33.67-2.25.73-.77,1.68-.8,1.86-.8,13.95-.04,27.91-.07,41.86-.11v-14.69h19.91v61.61Z"/>
    <path class="st1" d="M121.54,138.31h-24.64c-.11,12.36-.21,24.72-.32,37.07,8.32.07,16.64.14,24.96.21v-37.28Z"/>
    <path d="M230.55,180.33c-.12.02-1.36.15-2.21-.79-.63-.7-.64-1.54-.63-1.74v-44.02c0-.15-.04-1.24.84-2.05.83-.76,1.84-.7,2-.68h59.61c.22.03.81.14,1.32.63.76.74.7,1.75.68,1.9v44.23c.02.19.09.94-.41,1.62-.74,1.01-2.04.91-2.11.9h-59.08Z"/>
    <path class="st2" d="M247.82,138.2"/>
    <rect class="st1" x="247.82" y="138.2" width="24.64" height="37.39"/>
    <path d="M170.83,131.04h-19.48v46.66c0,.23.02.97.57,1.66.69.86,1.68.96,1.86.97h61.72c.24-.03,1.02-.17,1.67-.86.59-.62.72-1.32.75-1.57v-46.87h-19.69l-.11,42.34c-.02.2-.13.95-.78,1.55-.76.71-1.69.67-1.86.66h-22.01c-.23-.02-1.15-.12-1.88-.9-.56-.59-.71-1.26-.75-1.53v-42.13Z"/>
    <path d="M171.04,123.35c2.63-4,5.27-8,7.9-12.01,5.65.06,11.3.13,16.95.19-2.63,3.97-5.26,7.94-7.89,11.91-5.65-.03-11.3-.06-16.96-.09Z"/>
    <path class="st0" d="M307.17,180.33c-.18,0-1.08-.04-1.8-.78-.64-.66-.72-1.44-.73-1.65v-46.87h19.75v42.23c.03.27.11.77.47,1.26.68.93,1.77,1.04,1.95,1.05h17.38v4.74h-37.02Z"/>
    <path class="st0" d="M354.09,180.33l14.96-46.76c.07-.29.28-1.08,1-1.74.59-.54,1.23-.72,1.53-.79h52.03v49.29h-20.12c.04-14.04.09-28.09.13-42.13-4.89.07-9.78.14-14.67.21-4.18,12.32-8.36,24.64-12.53,36.97,5.65.04,11.3.07,16.96.11.03,1.62.06,3.23.1,4.85-13.13,0-26.25,0-39.38,0Z"/>
    <path class="st0" d="M433.39,180.33v-66.3h19.91v17.01h42.02c.2,0,1.14.06,1.9.84.75.77.79,1.69.79,1.9v44.08c-.03.21-.17,1.1-.97,1.78-.79.67-1.69.67-1.9.66-20.58.01-41.17.02-61.75.04Z"/>
    <rect class="st1" x="454.41" y="138.52" width="23.38" height="37.28"/>
    <rect class="st0" x="512.15" y="101.39" width="29.94" height="7.11"/>
    <rect class="st0" x="517.2" y="109.45" width="19.83" height="8.85"/>

    <path class="st0" d="M305.96,189.39"/>
  </g>
  <g id="Capa_6">
    <path class="st1" d="M121.78,138.26h-24.64c-.11,12.36-.21,24.72-.32,37.07,8.32.07,16.64.14,24.96.21v-37.28Z"/>
  </g>
  <g id="Capa_4">
    <path class="st0" d="M98.06,236.15"/>
  </g>
  <g id="Capa_7">
    <path class="st3" d="M195.91,207.22c-13.09,4.02-33.8,9.25-59.71,10.79-8.17.49-68.12,3.66-72.15-12.05-1.5-5.83,5.12-12.68,13.35-19.34,40.97-33.11,116.47-56.92,155.79-68.02,22.75-6.81,46.85-13.16,72.25-18.8,69.56-15.43,133.86-22.13,190.42-24.01v7.58c-47.54.1-85.57,5.01-112.07,9.66-41.85,7.34-99.89,21.91-99.89,21.92h0s-16.57,4.54-47.99,13.14c0,0-102.7,27.06-140.79,62.71-7.88,7.38-7.08,11.4-6.79,12.4,1.47,5.23,10.93,7.08,19.27,8.04,26.59,3.05,62.81-.57,88.32-4.01Z"/>
    <path class="st4" d="M323.76,240.58"/>
  </g>
  <g id="Capa_5">
    <path d="M96.66,154.32c.03,3.59.04,7.23.03,10.9-.01,3.42-.05,6.81-.11,10.16,8.4.05,16.8.11,25.2.16v-37.97h19.67v40.28c0,.19-.04,1.04-.74,1.74-.78.79-1.79.75-1.95.74h-59.56c-.13,0-1.1-.1-1.69-.95-.45-.65-.39-1.34-.37-1.53v-23.38c6.5-.05,13.01-.1,19.51-.16Z"/>
    <path d="M70.67,129.57"/>
    <path d="M61.4,126.51"/>
  </g>
  </g>
</svg>
