<?xml version="1.0" encoding="UTF-8"?>
<svg xmlns="http://www.w3.org/2000/svg" version="1.1" xmlns:xlink="http://www.w3.org/1999/xlink" viewBox="56 96 494 130">
  <!-- Generator: Adobe Illustrator 29.2.0, SVG Export Plug-In . SVG Version: 2.1.0 Build 108)  -->
  <defs>
    <style>
      .st0 {
        fill: #68286b;
      }

      .st1 {
        fill: none;
      }

      .st2 {
        fill: none;
      }

      .st3 {
        fill: url(#Degradado_sin_nombre_17);
      }

      .st4 {
        fill: url(#Degradado_sin_nombre_12);
      }
    </style>
    <linearGradient id="Degradado_sin_nombre_17" data-name="Degradado sin nombre 17" x1="495.86" y1="147.18" x2="63.84" y2="147.18" gradientUnits="userSpaceOnUse">
      <stop offset=".02" stop-color="#fff"/>
      <stop offset=".1" stop-color="#f4f2f6"/>
      <stop offset=".26" stop-color="#d8d2e0"/>
      <stop offset=".33" stop-color="#c9c0d4"/>
      <stop offset=".36" stop-color="#baa9c4"/>
      <stop offset=".41" stop-color="#a486ac"/>
      <stop offset=".47" stop-color="#916998"/>
      <stop offset=".53" stop-color="#825187"/>
      <stop offset=".6" stop-color="#763e7a"/>
      <stop offset=".68" stop-color="#6e3171"/>
      <stop offset=".78" stop-color="#692a6c"/>
      <stop offset="1" stop-color="#68286b"/>
    </linearGradient>
    <linearGradient id="Degradado_sin_nombre_12" data-name="Degradado sin nombre 12" x1="323.76" y1="240.58" x2="323.76" y2="240.58" gradientUnits="userSpaceOnUse">
      <stop offset="0" stop-color="#fff"/>
      <stop offset=".1" stop-color="#eeecf2"/>
      <stop offset=".33" stop-color="#c9c0d4"/>
      <stop offset=".36" stop-color="#baa9c4"/>
      <stop offset=".41" stop-color="#a486ac"/>
      <stop offset=".47" stop-color="#916998"/>
      <stop offset=".53" stop-color="#825187"/>
      <stop offset=".6" stop-color="#763e7a"/>
      <stop offset=".68" stop-color="#6e3171"/>
      <stop offset=".78" stop-color="#692a6c"/>
      <stop offset="1" stop-color="#68286b"/>
    </linearGradient>
    <mask id="counters" maskUnits="userSpaceOnUse" x="0" y="0" width="612" height="792">
      <rect x="0" y="0" width="612" height="792" fill="#fff"/>
      <path d="M121.54,138.31h-24.64c-.11,12.36-.21,24.72-.32,37.07,8.32.07,16.64.14,24.96.21v-37.28Z" fill="#000"/>
      <rect x="247.82" y="138.2" width="24.64" height="37.39" fill="#000"/>
      <rect x="454.41" y="138.52" width="23.38" height="37.28" fill="#000"/>
      <path d="M121.78,138.26h-24.64c-.11,12.36-.21,24.72-.32,37.07,8.32.07,16.64.14,24.96.21v-37.28Z" fill="#000"/>
    </mask>
  </defs>
  <g mask="url(#counters)">
  <g id="Capa_1">
    <path d="M98.48,232.36"/>
  </g>
  <g id="Capa_3">
    <polyline class="st0" points="537.82 190.5 525.02 190.5 525.02 187.81 537.82 187.81 537.82 191.29"/>
    <polyline class="st0" points="537.82 183.23 525.02 183.23 525.02 180.54 537.82 180.54 537.82 184.02"/>
    <polyline class="st0" points="537.82 175.96 525.02 175.96 525.02 173.28 537.82 173.28 537.82 176.75"/>
    <polyline class="st0" points="537.82 168.69 525.02 168.69 525.02 166.01 537.82 166.01 537.82 169.48"/>
    <polyline class="st0" points="537.82 161.43 525.02 161.43 525.02 158.74 537.82 158.74 537.82 162.22"/>
    <polyline class="st0" points="537.82 154.16 525.02 154.16 525.02 151.47 537.82 151.47 537.82 154.95"/>
    <polyline class="st0" points="537.82 146.89 525.02 146.89 525.02 144.21 537.82 144.21 537.82 147.68"/>
    <polyline class="st0" points="537.82 139.63 525.02 139.63 525.02 136.94 537.82 136.94 537.82 140.42"/>
    <polyline class="st0" points="537.82 132.36 525.02 132.36 525.02 129.67 537.82 129.67 537.82 133.15"/>
  </g>
  <g id="Capa_2">
    <path class="st0" fill-rule="evenodd" d="M537.03125,118.929688C529.5,119.035156,521.96875,119.144531,514.4375,119.25C514.386719,143.859375,514.332031,168.464844,514.28125,193.074219C514.792969,199.628906,520.195312,204.75,526.601562,204.871094C533.183594,204.996094,538.867188,199.808594,539.398438,193.074219C539.425781,168.359375,539.453125,143.644531,539.480469,118.929688ZM537.03125,121.351562L517.203125,121.351562L517.203125,193.390625C517.882812,198.242188,521.808594,201.917969,526.394531,202.238281C531.523438,202.597656,536.34375,198.664062,537.03125,193.179688Z"/>
    <path d="M141.45,177.86l-2.69,2.48h-59.56l-2.05-2.48v-43.76c-.02-.13-.2-1.33.67-2.25.73-.77,1.68-.8,1.86-.8,13.95-.04,27.91-.07,41.86-.11v-14.69h19.91v61.61Z"/>
    <path class="st1" d="M121.54,138.31h-24.64c-.11,12.36-.21,24.72-.32,37.07,8.32.07,16.64.14,24.96.21v-37.28Z"/>
    <path d="M230.55,180.33c-.12.02-1.36.15-2.21-.79-.63-.7-.64-1.54-.63-1.74v-44.02c0-.15-.04-1.24.84-2.05.83-.76,1.84-.7,2-.68h59.61c.22.03.81.14,1.32.63.76.74.7,1.75.68,1.9v44.23c.02.19.09.94-.41,1.62-.74,1.01-2.04.91-2.11.9h-59.08Z"/>
    <path class="st2" d="M247.82,138.2"/>
    <rect class="st1" x="247.82" y="138.2" width="24.64" height="37.39"/>
    <path d="M170.83,131.04h-19.48v46.66c0,.23.02.97.57,1.66.69.86,1.68.96,1.86.97h61.72c.24-.03,1.02-.17,1.67-.86.59-.62.72-1.32.75-1.57v-46.87h-19.69l-.11,42.34c-.02.2-.13.95-.78,1.55-.76.71-1.69.67-1.86.66h-22.01c-.23-.02-1.15-.12-1.88-.9-.56-.59-.71-1.26-.75-1.53v-42.13Z"/>
    <path d="M171.04,123.35c2.63-4,5.27-8,7.9-12.01,5.65.06,11.3.13,16.95.19-2.63,3.97-5.26,7.94-7.89,11.91-5.65-.03-11.3-.06-16.96-.09Z"/>
    <path class="st0" d="M307.17,180.33c-.18,0-1.08-.04-1.8-.78-.64-.66-.72-1.44-.73-1.65v-46.87h19.75v42.23c.03.27.11.77.47,1.26.68.93,1.77,1.04,1.95,1.05h17.38v4.74h-37.02Z"/>
    <path class="st0" d="M354.09,180.33l14.96-46.76c.07-.29.28-1.08,1-1.74.59-.54,1.23-.72,1.53-.79h52.03v49.29h-20.12c.04-14.04.09-28.09.13-42.13-4.89.07-9.78.14-14.67.21-4.18,12.32-8.36,24.64-12.53,36.97,5.65.04,11.3.07,16.96.11.03,1.62.06,3.23.1,4.85-13.13,0-26.25,0-39.38,0Z"/>
    <path class="st0" d="M433.39,180.33v-66.3h19.91v17.01h42.02c.2,0,1.14.06,1.9.84.75.77.79,1.69.79,1.9v44.08c-.03.21-.17,1.1-.97,1.78-.79.67-1.69.67-1.9.66-20.58.01-41.17.02-61.75.04Z"/>
    <rect class="st1" x="454.41" y="138.52" width="23.38" height="37.28"/>
    <rect class="st0" x="512.15" y="101.39" width="29.94" height="7.11"/>
    <rect class="st0" x="517.2" y="109.45" width="19.83" height="8.85"/>
    <g>
      <path class="st0" d="M178.73,189.3h2.54v10.5h4.43v2.46h-6.96v-12.96Z"/>
      <path class="st0" d="M187.05,199.53c0-2.08,1.43-3.2,4.81-3.61-.05-.86-.42-1.43-1.35-1.43-.72,0-1.43.35-2.26.89l-.9-1.92c1.08-.76,2.3-1.3,3.65-1.3,2.18,0,3.39,1.44,3.39,4.46v5.64h-2.06l-.18-1.01h-.06c-.72.73-1.52,1.25-2.48,1.25-1.56,0-2.55-1.31-2.55-2.97ZM191.86,199.4v-1.72c-1.8.28-2.39.87-2.39,1.62,0,.64.38.95.98.95s.96-.33,1.41-.84Z"/>
      <path class="st0" d="M198.76,201.21h-.06l-.21,1.05h-1.98v-13.93h2.53v3.4l-.06,1.52c.65-.67,1.45-1.09,2.26-1.09,2.07,0,3.35,1.97,3.35,5,0,3.4-1.74,5.34-3.59,5.34-.76,0-1.55-.44-2.23-1.29ZM201.99,197.21c0-1.77-.47-2.66-1.48-2.66-.52,0-.97.27-1.47.88v4.05c.45.46.94.62,1.36.62.88,0,1.59-.86,1.59-2.9Z"/>
      <path class="st0" d="M205.88,197.33c0-3.28,2-5.17,4.16-5.17s4.16,1.89,4.16,5.17-2,5.17-4.16,5.17-4.16-1.9-4.16-5.17ZM211.6,197.33c0-1.71-.52-2.82-1.57-2.82s-1.57,1.11-1.57,2.82.52,2.81,1.57,2.81,1.57-1.1,1.57-2.81Z"/>
      <path class="st0" d="M215.93,192.4h2.06l.18,1.72h.06c.62-1.32,1.56-1.96,2.43-1.96.49,0,.77.07,1.02.2l-.42,2.52c-.3-.09-.55-.16-.92-.16-.64,0-1.43.48-1.88,1.82v5.72h-2.53v-9.86Z"/>
      <path class="st0" d="M221.9,199.53c0-2.08,1.43-3.2,4.81-3.61-.05-.86-.42-1.43-1.35-1.43-.72,0-1.43.35-2.26.89l-.9-1.92c1.08-.76,2.3-1.3,3.65-1.3,2.18,0,3.39,1.44,3.39,4.46v5.64h-2.06l-.18-1.01h-.06c-.72.73-1.52,1.25-2.48,1.25-1.56,0-2.55-1.31-2.55-2.97ZM226.71,199.4v-1.72c-1.8.28-2.39.87-2.39,1.62,0,.64.38.95.98.95s.96-.33,1.41-.84Z"/>
      <path class="st0" d="M231.4,198.68v-3.98h-1.17v-2.18l1.31-.11.3-2.62h2.09v2.62h2.05v2.29h-2.05v3.95c0,1.12.44,1.57,1.11,1.57.28,0,.59-.09.81-.19l.4,2.12c-.45.17-1.07.36-1.9.36-2.11,0-2.95-1.54-2.95-3.83Z"/>
      <path class="st0" d="M236.85,197.33c0-3.28,2-5.17,4.16-5.17s4.16,1.89,4.16,5.17-2,5.17-4.16,5.17-4.16-1.9-4.16-5.17ZM242.57,197.33c0-1.71-.52-2.82-1.57-2.82s-1.57,1.11-1.57,2.82.52,2.81,1.57,2.81,1.57-1.1,1.57-2.81Z"/>
      <path class="st0" d="M246.9,192.4h2.06l.18,1.72h.06c.62-1.32,1.56-1.96,2.43-1.96.49,0,.77.07,1.02.2l-.42,2.52c-.3-.09-.55-.16-.92-.16-.64,0-1.43.48-1.88,1.82v5.72h-2.53v-9.86Z"/>
      <path class="st0" d="M253.55,189.43c0-.9.62-1.53,1.46-1.53s1.46.63,1.46,1.53-.62,1.53-1.46,1.53-1.46-.64-1.46-1.53ZM253.75,192.4h2.53v9.86h-2.53v-9.86Z"/>
      <path class="st0" d="M258,197.33c0-3.28,2-5.17,4.16-5.17s4.16,1.89,4.16,5.17-2,5.17-4.16,5.17-4.16-1.9-4.16-5.17ZM263.73,197.33c0-1.71-.52-2.82-1.57-2.82s-1.57,1.11-1.57,2.82.52,2.81,1.57,2.81,1.57-1.1,1.57-2.81Z"/>
      <path class="st0" d="M270.92,197.33c0-3.23,1.74-5.17,3.54-5.17.94,0,1.52.4,2.09,1.03l-.09-1.49v-3.36h2.53v13.93h-2.06l-.18-.98h-.06c-.6.7-1.45,1.22-2.27,1.22-2.12,0-3.49-1.95-3.49-5.17ZM276.46,199.23v-4.05c-.45-.46-.95-.62-1.41-.62-.82,0-1.54.87-1.54,2.75s.58,2.81,1.56,2.81c.54,0,.97-.24,1.39-.88Z"/>
      <path class="st0" d="M280.72,197.33c0-3.2,1.98-5.17,4.03-5.17,2.43,0,3.64,2.04,3.64,4.73,0,.53-.06,1.05-.11,1.29h-5.11c.23,1.43,1.08,2.09,2.21,2.09.65,0,1.23-.23,1.85-.65l.84,1.76c-.88.7-2.02,1.11-3.03,1.11-2.43,0-4.32-1.9-4.32-5.17ZM286.23,196.25c0-1.08-.41-1.87-1.42-1.87-.8,0-1.49.62-1.66,1.87h3.08Z"/>
      <path class="st0" d="M293.19,199.53c0-2.08,1.43-3.2,4.81-3.61-.05-.86-.42-1.43-1.35-1.43-.72,0-1.43.35-2.26.89l-.9-1.92c1.08-.76,2.3-1.3,3.65-1.3,2.18,0,3.39,1.44,3.39,4.46v5.64h-2.06l-.18-1.01h-.06c-.72.73-1.52,1.25-2.48,1.25-1.56,0-2.55-1.31-2.55-2.97ZM297.99,199.4v-1.72c-1.8.28-2.39.87-2.39,1.62,0,.64.38.95.98.95s.96-.33,1.41-.84Z"/>
      <path class="st0" d="M302.65,192.4h2.06l.18,1.25h.06c.72-.8,1.58-1.49,2.74-1.49,1.86,0,2.65,1.51,2.65,3.98v6.12h-2.53v-5.75c0-1.42-.33-1.86-1.06-1.86-.64,0-1.02.34-1.58.96v6.65h-2.53v-9.86Z"/>
      <path class="st0" d="M312.1,199.53c0-2.08,1.43-3.2,4.81-3.61-.05-.86-.42-1.43-1.35-1.43-.72,0-1.43.35-2.26.89l-.9-1.92c1.08-.76,2.3-1.3,3.65-1.3,2.18,0,3.39,1.44,3.39,4.46v5.64h-2.06l-.18-1.01h-.06c-.72.73-1.52,1.25-2.48,1.25-1.56,0-2.55-1.31-2.55-2.97ZM316.91,199.4v-1.72c-1.8.28-2.39.87-2.39,1.62,0,.64.38.95.98.95s.96-.33,1.41-.84ZM315.07,189.45l2.64-3.62,1.72,1.94-3.11,3.11-1.25-1.43Z"/>
      <path class="st0" d="M321.57,199.2v-10.86h2.53v10.98c0,.63.25.83.46.83.1,0,.17,0,.31-.04l.3,2.15c-.28.14-.69.24-1.27.24-1.74,0-2.33-1.31-2.33-3.3Z"/>
      <path class="st0" d="M326.29,189.43c0-.9.62-1.53,1.46-1.53s1.46.63,1.46,1.53-.62,1.53-1.46,1.53-1.46-.64-1.46-1.53ZM326.49,192.4h2.53v9.86h-2.53v-9.86Z"/>
      <path class="st0" d="M330.49,201.12l1.14-1.82c.77.68,1.49,1.04,2.2,1.04.75,0,1.08-.33,1.08-.85,0-.65-.85-.94-1.72-1.34-1.05-.47-2.26-1.27-2.26-2.9,0-1.84,1.29-3.09,3.26-3.09,1.31,0,2.28.61,3.01,1.25l-1.13,1.75c-.61-.51-1.21-.84-1.8-.84-.65,0-.97.3-.97.79,0,.63.8.87,1.68,1.24,1.08.46,2.3,1.17,2.3,2.97s-1.22,3.18-3.51,3.18c-1.13,0-2.41-.56-3.28-1.38Z"/>
      <path class="st0" d="M338.67,189.43c0-.9.62-1.53,1.46-1.53s1.46.63,1.46,1.53-.62,1.53-1.46,1.53-1.46-.64-1.46-1.53ZM338.87,192.4h2.53v9.86h-2.53v-9.86Z"/>
      <path class="st0" d="M342.86,201.12l1.14-1.82c.77.68,1.49,1.04,2.2,1.04.75,0,1.08-.33,1.08-.85,0-.65-.85-.94-1.72-1.34-1.05-.47-2.26-1.27-2.26-2.9,0-1.84,1.29-3.09,3.26-3.09,1.31,0,2.28.61,3.01,1.25l-1.13,1.75c-.61-.51-1.21-.84-1.8-.84-.65,0-.97.3-.97.79,0,.63.8.87,1.68,1.24,1.08.46,2.3,1.17,2.3,2.97s-1.22,3.18-3.51,3.18c-1.13,0-2.41-.56-3.28-1.38Z"/>
      <path class="st0" d="M354.19,197.33c0-3.28,2.09-5.17,4.45-5.17,1.05,0,1.86.43,2.5,1.06l-1.2,1.88c-.41-.4-.75-.58-1.16-.58-1.22,0-2,1.11-2,2.82s.81,2.81,1.91,2.81c.56,0,1.1-.32,1.54-.73l.99,1.91c-.83.85-1.89,1.17-2.81,1.17-2.38,0-4.22-1.9-4.22-5.17Z"/>
      <path class="st0" d="M362.72,199.2v-10.86h2.53v10.98c0,.63.25.83.46.83.1,0,.17,0,.31-.04l.3,2.15c-.28.14-.69.24-1.27.24-1.74,0-2.33-1.31-2.33-3.3Z"/>
      <path class="st0" d="M367.65,192.4h2.53v9.86h-2.53v-9.86ZM367.85,189.45l2.64-3.62,1.72,1.94-3.11,3.11-1.25-1.43Z"/>
      <path class="st0" d="M372.4,192.4h2.06l.18,1.25h.06c.72-.8,1.58-1.49,2.74-1.49,1.86,0,2.65,1.51,2.65,3.98v6.12h-2.53v-5.75c0-1.42-.33-1.86-1.06-1.86-.64,0-1.02.34-1.58.96v6.65h-2.53v-9.86Z"/>
      <path class="st0" d="M382.05,189.43c0-.9.62-1.53,1.46-1.53s1.46.63,1.46,1.53-.62,1.53-1.46,1.53-1.46-.64-1.46-1.53ZM382.24,192.4h2.53v9.86h-2.53v-9.86Z"/>
      <path class="st0" d="M386.5,197.33c0-3.28,2.09-5.17,4.45-5.17,1.05,0,1.86.43,2.5,1.06l-1.2,1.88c-.41-.4-.75-.58-1.16-.58-1.22,0-2,1.11-2,2.82s.81,2.81,1.91,2.81c.56,0,1.1-.32,1.54-.73l.99,1.91c-.83.85-1.89,1.17-2.81,1.17-2.38,0-4.22-1.9-4.22-5.17Z"/>
      <path class="st0" d="M394.05,197.33c0-3.28,2-5.17,4.16-5.17s4.16,1.89,4.16,5.17-2,5.17-4.16,5.17-4.16-1.9-4.16-5.17ZM399.78,197.33c0-1.71-.52-2.82-1.57-2.82s-1.57,1.11-1.57,2.82.52,2.81,1.57,2.81,1.57-1.1,1.57-2.81Z"/>
      <path class="st0" d="M403.26,201.12l1.14-1.82c.77.68,1.49,1.04,2.2,1.04.75,0,1.08-.33,1.08-.85,0-.65-.85-.94-1.72-1.34-1.05-.47-2.26-1.27-2.26-2.9,0-1.84,1.29-3.09,3.26-3.09,1.31,0,2.28.61,3.01,1.25l-1.13,1.75c-.61-.51-1.21-.84-1.8-.84-.65,0-.97.3-.97.79,0,.63.8.87,1.68,1.24,1.08.46,2.3,1.17,2.3,2.97s-1.22,3.18-3.51,3.18c-1.13,0-2.41-.56-3.28-1.38Z"/>
      <path class="st0" d="M414.83,205.92l.45-2.23c.16.05.39.13.58.13.83,0,1.27-.53,1.49-1.29l.13-.51-3.29-9.61h2.54l1.22,4.24c.25.89.45,1.83.67,2.8h.07c.19-.93.38-1.87.59-2.8l1.04-4.24h2.42l-2.96,9.97c-.81,2.47-1.72,3.75-3.73,3.75-.53,0-.87-.08-1.22-.2Z"/>
      <path class="st0" d="M427.5,192.4h2.06l.18.97h.06c.67-.69,1.54-1.21,2.43-1.21,2.07,0,3.33,1.97,3.33,5.02,0,3.38-1.74,5.33-3.59,5.33-.74,0-1.43-.37-2.04-1.03l.08,1.56v2.89h-2.53v-13.52ZM432.98,197.21c0-1.77-.47-2.66-1.48-2.66-.52,0-.97.27-1.47.88v4.05c.46.46.93.62,1.36.62.88,0,1.59-.86,1.59-2.9Z"/>
      <path class="st0" d="M436.78,199.53c0-2.08,1.43-3.2,4.81-3.61-.05-.86-.42-1.43-1.35-1.43-.72,0-1.43.35-2.26.89l-.9-1.92c1.08-.76,2.3-1.3,3.65-1.3,2.18,0,3.39,1.44,3.39,4.46v5.64h-2.06l-.18-1.01h-.06c-.72.73-1.52,1.25-2.48,1.25-1.56,0-2.55-1.31-2.55-2.97ZM441.59,199.4v-1.72c-1.8.28-2.39.87-2.39,1.62,0,.64.38.95.98.95s.96-.33,1.41-.84Z"/>
      <path class="st0" d="M446.28,198.68v-3.98h-1.17v-2.18l1.31-.11.3-2.62h2.09v2.62h2.05v2.29h-2.05v3.95c0,1.12.44,1.57,1.11,1.57.28,0,.59-.09.81-.19l.4,2.12c-.45.17-1.07.36-1.9.36-2.11,0-2.95-1.54-2.95-3.83Z"/>
      <path class="st0" d="M451.72,197.33c0-3.28,2-5.17,4.16-5.17s4.16,1.89,4.16,5.17-2,5.17-4.16,5.17-4.16-1.9-4.16-5.17ZM457.45,197.33c0-1.71-.52-2.82-1.57-2.82s-1.57,1.11-1.57,2.82.52,2.81,1.57,2.81,1.57-1.1,1.57-2.81Z"/>
      <path class="st0" d="M461.63,199.2v-10.86h2.53v10.98c0,.63.25.83.46.83.1,0,.17,0,.31-.04l.3,2.15c-.28.14-.69.24-1.27.24-1.74,0-2.33-1.31-2.33-3.3Z"/>
      <path class="st0" d="M466.06,197.33c0-3.28,2-5.17,4.16-5.17s4.16,1.89,4.16,5.17-2,5.17-4.16,5.17-4.16-1.9-4.16-5.17ZM471.79,197.33c0-1.71-.52-2.82-1.57-2.82s-1.57,1.11-1.57,2.82.52,2.81,1.57,2.81,1.57-1.1,1.57-2.81Z"/>
      <path class="st0" d="M475.58,203.96c0-.82.43-1.48,1.21-1.99v-.08c-.44-.34-.78-.86-.78-1.67,0-.71.41-1.41.95-1.85v-.08c-.6-.48-1.15-1.41-1.15-2.56,0-2.37,1.69-3.57,3.53-3.57.48,0,.94.09,1.32.24h3.12v2.13h-1.37c.16.29.29.78.29,1.3,0,2.27-1.5,3.31-3.36,3.31-.31,0-.66-.06-1.04-.19-.21.21-.3.39-.3.73,0,.49.34.72,1.28.72h1.38c2.09,0,3.26.74,3.26,2.51,0,2.05-1.85,3.54-4.78,3.54-1.99,0-3.57-.75-3.57-2.5ZM481.51,203.41c0-.62-.46-.76-1.3-.76h-.89c-.59,0-.92-.04-1.2-.13-.32.31-.46.61-.46.97,0,.75.75,1.13,1.89,1.13s1.95-.53,1.95-1.21ZM480.52,195.73c0-1.05-.49-1.6-1.17-1.6s-1.17.55-1.17,1.6.5,1.64,1.17,1.64,1.17-.56,1.17-1.64Z"/>
      <path class="st0" d="M485.3,192.4h2.53v9.86h-2.53v-9.86ZM485.5,189.45l2.64-3.62,1.72,1.94-3.11,3.11-1.25-1.43Z"/>
      <path class="st0" d="M489.66,199.53c0-2.08,1.43-3.2,4.81-3.61-.05-.86-.42-1.43-1.35-1.43-.72,0-1.43.35-2.26.89l-.9-1.92c1.08-.76,2.3-1.3,3.65-1.3,2.18,0,3.39,1.44,3.39,4.46v5.64h-2.06l-.18-1.01h-.06c-.72.73-1.52,1.25-2.48,1.25-1.56,0-2.55-1.31-2.55-2.97ZM494.47,199.4v-1.72c-1.8.28-2.39.87-2.39,1.62,0,.64.38.95.98.95s.96-.33,1.41-.84Z"/>
    </g>
    <path class="st0" d="M305.96,189.39"/>
  </g>
  <g id="Capa_6">
    <path class="st1" d="M121.78,138.26h-24.64c-.11,12.36-.21,24.72-.32,37.07,8.32.07,16.64.14,24.96.21v-37.28Z"/>
  </g>
  <g id="Capa_4">
    <path class="st0" d="M98.06,236.15"/>
  </g>
  <g id="Capa_7">
    <path class="st3" d="M195.91,207.22c-13.09,4.02-33.8,9.25-59.71,10.79-8.17.49-68.12,3.66-72.15-12.05-1.5-5.83,5.12-12.68,13.35-19.34,40.97-33.11,116.47-56.92,155.79-68.02,22.75-6.81,46.85-13.16,72.25-18.8,69.56-15.43,133.86-22.13,190.42-24.01v7.58c-47.54.1-85.57,5.01-112.07,9.66-41.85,7.34-99.89,21.91-99.89,21.92h0s-16.57,4.54-47.99,13.14c0,0-102.7,27.06-140.79,62.71-7.88,7.38-7.08,11.4-6.79,12.4,1.47,5.23,10.93,7.08,19.27,8.04,26.59,3.05,62.81-.57,88.32-4.01Z"/>
    <path class="st4" d="M323.76,240.58"/>
  </g>
  <g id="Capa_5">
    <path d="M96.66,154.32c.03,3.59.04,7.23.03,10.9-.01,3.42-.05,6.81-.11,10.16,8.4.05,16.8.11,25.2.16v-37.97h19.67v40.28c0,.19-.04,1.04-.74,1.74-.78.79-1.79.75-1.95.74h-59.56c-.13,0-1.1-.1-1.69-.95-.45-.65-.39-1.34-.37-1.53v-23.38c6.5-.05,13.01-.1,19.51-.16Z"/>
    <path d="M70.67,129.57"/>
    <path d="M61.4,126.51"/>
  </g>
  </g>
</svg>
